<svg xmlns="http://www.w3.org/2000/svg" width="103" height="77"><path fill="#7E6A71" d="M56.135 50.553c1.066-3.554 1.169-7.649.301-12.17-.326-1.697-.801-3.588-1.41-5.623-.452-1.507-.98-3.1-1.573-4.736a66.28 66.28 0 00-1.364-.034l-.395-.005-.371 29.895c2.174-1.619 3.871-4.191 4.812-7.327zm-3.079 7.252c2.076-.765 3.902-2.214 5.223-4.183 1.792-2.673 2.538-6.116 2.158-9.956a23.42 23.42 0 00-.489-2.935c-1.204-5.199-4.06-11.037-4.79-12.483-.181-.03-.357-.056-.535-.082a90.83 90.83 0 011.42 4.289c.62 2.066 1.103 3.994 1.436 5.728.898 4.689.79 8.954-.326 12.676-.847 2.821-2.269 5.211-4.097 6.946zm-6.928-25.467a91.34 91.34 0 011.551-4.32c-.211.022-.402.045-.573.067-.712 1.324-3.778 7.178-5.132 12.425a22.93 22.93 0 00-.562 2.919c-.476 3.834.185 7.294 1.91 10.007 1.283 2.022 3.095 3.526 5.176 4.337-1.793-1.78-3.159-4.214-3.937-7.065-1.023-3.748-1.027-8.014-.012-12.68.375-1.716.905-3.632 1.579-5.69zm1.009.33c-.661 2.019-1.184 3.899-1.551 5.586-.979 4.494-.979 8.592-.001 12.175.862 3.158 2.495 5.771 4.63 7.444l.372-29.898-.901-.008-.859.004a87.585 87.585 0 00-1.69 4.697zM61.397 0h-8.05c-.58 4.889-.271 10.985.073 15.06.338 4.012 2.03 10.413 2.638 12.62.698 1.372 3.664 7.382 4.922 12.815a24.06 24.06 0 01.512 3.066c.404 4.089-.403 7.771-2.332 10.65-1.719 2.563-4.222 4.333-7.048 4.988-.271.063-.539.093-.808.133l-.002.166-.049-.009-.533-.064-.525.052v-.001h-.001l.002-.147c-.282-.048-.564-.089-.848-.161-2.811-.727-5.27-2.56-6.923-5.162-1.857-2.929-2.572-6.631-2.067-10.705.122-.988.32-2.015.587-3.055 1.541-5.973 5.239-12.689 5.396-12.974l.136-.245.017-.002c.764-2.683 2.529-9.348 2.802-14.604.29-5.608.28-8.335-.104-12.421h-8.795c-2.75 0-5 2.25-5 5v67c0 2.75 2.25 5 5 5h21c2.75 0 5-2.25 5-5V5c0-2.75-2.25-5-5-5z"/><path fill="#D34D54" d="M26 0H5C2.25 0 0 2.25 0 5v67c0 2.75 2.25 5 5 5h7.915l.854-25.338c.024-1.949-.647-3.824-1.863-5.13-1.918-2.059-3.55-5.677-3.238-9.772.491-6.43 3.373-11.758 6.827-11.76 3.454-.003 6.341 5.315 6.837 11.746.316 4.097-1.313 7.717-3.229 9.781-1.215 1.305-1.886 3.182-1.858 5.132L18.12 77H26c2.75 0 5-2.25 5-5V5c0-2.75-2.25-5-5-5z"/><path fill="#84B444" d="M86.438 27.988h-.287a1.04 1.04 0 00-1.041 1.055l.141 14.828c.01.568.473 1.025 1.042 1.025h.003a1.04 1.04 0 001.041-1.025l.143-14.828a1.042 1.042 0 00-1.042-1.055zM96.794 0h-21c-2.75 0-5 2.25-5 5v67c0 2.75 2.25 5 5 5h7.987l.339-26.619h-3.988a2.738 2.738 0 01-2.725-2.476l-1.414-19.908A2.737 2.737 0 0178.716 25h15.158a2.737 2.737 0 012.723 2.997l-1.416 19.908a2.737 2.737 0 01-2.723 2.476H88.47L88.808 77h7.986c2.75 0 5-2.25 5-5V5c0-2.75-2.25-5-5-5zM81.321 27.988h-.285a1.04 1.04 0 00-1.037 1.114l.689 14.827a1.042 1.042 0 002.08-.117l-.408-14.828a1.04 1.04 0 00-1.039-.996zM91.899 43.93l.691-14.827a1.041 1.041 0 00-1.039-1.114h-.283c-.559 0-1.018.439-1.039.996l-.408 14.828a1.04 1.04 0 002.078.117z"/></svg>