<svg xmlns="http://www.w3.org/2000/svg" width="75" height="74"><path fill="#40A52B" d="M0 59.522h34.63v14.163H0z"/><path fill="#1C2A39" d="M39.055 0h34.631v22.979H39.055z"/><path fill="#D34D54" d="M19.928 0l-.167 7.205c-.03 1.314.714 2.505 1.844 2.945l1.477.576-.201 8.756c-.409 17.666-9.354 29.958-9.354 29.958L14.667 0H0v55.099h34.63V0H19.928z"/><path fill="#E59325" d="M39.055 27.403v46.282h15.814l.273-6.383c.033-2.343-.788-4.598-2.277-6.169-2.35-2.484-3.307-6.814-3.194-11.756.075-3.374.873-12.946 1-14.442h1.479l-.009 16.646 1.708-.018.26-16.629h1.287l.241 16.611h1.788l.26-16.611h1.287l.241 16.634 1.708.019.009-16.652h1.479c.123 1.473.914 11.071.984 14.451.106 4.942-.855 9.272-3.206 11.751-1.491 1.57-2.317 3.826-2.286 6.167l.267 6.381h15.517V27.403h-34.63z"/></svg>