<svg xmlns="http://www.w3.org/2000/svg" width="176" height="67"><path fill="#E59325" d="M33 0C14.774 0 0 14.774 0 33c0 17.415 13.493 31.669 30.593 32.903l.411-9.576c.037-2.725-.918-5.347-2.649-7.173-2.73-2.886-3.845-7.924-3.715-13.667.088-3.925 1.016-15.054 1.162-16.794h1.722l-.011 19.354 1.986-.019.301-19.335h1.498l.28 19.314 2.079.002.302-19.316h1.498l.281 19.338 1.985.023.01-19.361h1.721c.141 1.713 1.06 12.872 1.144 16.803.122 5.744-.996 10.778-3.729 13.663-1.732 1.825-2.691 4.447-2.658 7.17l.402 9.63C52.089 65.118 66 50.685 66 33 66 14.774 51.226 0 33 0z"/><path fill="#D34D54" d="M87.333 0c-18.226 0-33 14.774-33 33 0 17.837 14.153 32.359 31.841 32.971l-.027-2.682c-.017-1.554-.941-2.929-2.293-3.406l-1.765-.621s-.02-1.888-.104-10.341c-.215-20.868 9.86-35.728 9.86-35.728l.539 52.422c15.827-2.431 27.949-16.107 27.949-32.615.001-18.226-14.774-33-33-33z"/><path fill="#84B444" d="M141.667 0c-18.226 0-33 14.774-33 33 0 17.388 13.45 31.624 30.513 32.897l.488-14.46c.029-2.394-.796-4.697-2.289-6.3-2.356-2.528-4.36-6.971-3.977-12.001.602-7.899 4.143-14.44 8.385-14.443 4.241-.004 7.785 6.53 8.396 14.428.388 5.028-1.612 9.476-3.966 12.01-1.492 1.604-2.316 3.909-2.281 6.303l.498 14.442c16.93-1.407 30.233-15.583 30.233-32.876 0-18.226-14.774-33-33-33z"/><path fill="#913A14" d="M60.167 14.271C56.491 19.593 54.333 26.043 54.333 33s2.158 13.407 5.833 18.729C63.842 46.407 66 39.957 66 33s-2.158-13.407-5.833-18.729z"/><path fill="#824F32" d="M114.5 14.271c-3.676 5.322-5.833 11.771-5.833 18.729s2.157 13.407 5.833 18.729c3.676-5.321 5.834-11.771 5.834-18.729s-2.158-13.407-5.834-18.729z"/></svg>