<svg xmlns="http://www.w3.org/2000/svg" width="69" height="69"><path fill="#F69221" d="M68.02 32.598a24.258 24.258 0 00-.075-1.214C66.587 13.786 51.69 0 34.027 0 15.265 0 0 15.265 0 34.027c0 17.344 12.98 31.879 30.192 33.812v.001a33.86 33.86 0 002.545.175c.049.001.098.008.147.01v-.003c.023 0 .045.002.068.003.052-.948.119-2.063.193-3.379l.172-3.059c.65.146 1.307.275 1.973.377l.149 2.658.116 2.075c.043.774.72 1.36 1.491 1.29l.028-.003a1.37 1.37 0 001.242-1.441l-.121-2.164-.119-2.13a28.323 28.323 0 0010.778-1.495A28.427 28.427 0 0068.02 32.598zm-3.292 1.45c-.093 13.751-11.338 24.925-25.099 24.925-.582 0-1.162-.024-1.741-.064l-.028-.512c-.112-2.018-.218-3.934-.296-5.401a445.516 445.516 0 01-.096-1.917c2.812-1.803 4.447-3.168 5.447-4.544.535-.74.866-1.5 1.032-2.229.168-.731.185-1.406.186-2.043 0-.288-.004-.57-.004-.855-.001-.36-.034-.895-.089-1.65-.193-2.617-.669-7.629-1.098-12.005-.429-4.373-.81-8.097-.81-8.098a1.382 1.382 0 10-2.752.282 1743.477 1743.477 0 011.359 13.813c.175 1.864.331 3.605.444 4.976.057.685.102 1.277.133 1.742.031.461.047.811.046.941 0 .311.004.595.004.855.001.58-.022 1.027-.114 1.42a3.11 3.11 0 01-.361.897c-.282.483-.779 1.083-1.665 1.838-.884.755-2.146 1.655-3.9 2.747l-.653.406v.769c.001.114.006.244.014.441.046 1.149.219 4.306.411 7.763a24.754 24.754 0 01-1.591-.344c.105-1.888.203-3.672.276-5.059a303.125 303.125 0 00.119-2.431c.006-.161.01-.27.01-.371v-.769l-.652-.406c-3.125-1.936-4.67-3.291-5.344-4.244-.341-.48-.489-.845-.583-1.238-.091-.393-.115-.84-.114-1.42 0-.26.004-.545.004-.855-.001-.18.028-.727.082-1.447.188-2.555.664-7.574 1.091-11.938a2583.054 2583.054 0 01.808-8.087 1.384 1.384 0 00-2.752-.282c0 .001-.498 4.866-.995 10.003a848.323 848.323 0 00-.685 7.34 198.18 198.18 0 00-.227 2.76c-.055.756-.088 1.29-.089 1.65 0 .284-.004.566-.004.855.001.637.018 1.312.186 2.043a5.91 5.91 0 00.668 1.672c.493.841 1.219 1.658 2.258 2.545.907.773 2.062 1.607 3.554 2.563a970.287 970.287 0 01-.333 6.264C21.433 53.82 14.98 45.007 14.56 34.938a17.936 17.936 0 01-.027-1.063c0-.361.007-.715.027-1.069.56-11.026 9.654-19.663 20.705-19.663.557 0 1.123.022 1.682.067 10.176.806 18.347 9.099 19.006 19.291a20.792 20.792 0 01-12.629 20.464c-.423.18-.747.513-.911.936-.16.411-.148.858.048 1.296.266.59.854.971 1.499.971.217 0 .43-.043.632-.128a24.005 24.005 0 0014.724-22.165c0-13.264-10.788-24.054-24.048-24.054-.958 0-1.925.061-2.959.186-12.026 1.479-21.095 11.74-21.095 23.868 0 .399.013.806.034 1.206l-.006.002a28.327 28.327 0 0019.349 25.746l-.011.191-.193 3.424a1.642 1.642 0 01-.004.07l-.006-.001C14.951 62.679 3.32 49.573 3.32 34.027c0-16.933 13.775-30.708 30.708-30.708 4.697 0 9.205 1.038 13.399 3.085 10.495 5.109 17.289 15.933 17.309 27.574l-.008.07zm-32.305-15.29a1.036 1.036 0 00-1.093.979l-.865 15.561a1.038 1.038 0 102.072.115l.864-15.562a1.036 1.036 0 00-.978-1.093zm3.739 0a1.038 1.038 0 00-.979 1.093l.864 15.562a1.039 1.039 0 002.073-.115l-.865-15.561a1.037 1.037 0 00-1.093-.979z"/></svg>