<svg width="879" height="224" viewBox="0 0 879 224" fill="none" xmlns="http://www.w3.org/2000/svg">
<path d="M207.913 99.6749C207.868 98.4358 207.791 97.1981 207.684 95.9628C203.533 42.1534 157.998 0 104.009 0C46.6597 0 0 46.6758 0 104.044C0 157.077 39.6753 201.521 92.2863 207.431V207.434C94.8717 207.71 97.4666 207.889 100.065 207.969C100.215 207.972 100.365 207.994 100.515 208V207.991C100.585 207.991 100.652 207.997 100.723 208C100.882 205.101 101.086 201.692 101.313 197.668L101.838 188.315C103.825 188.761 105.833 189.155 107.869 189.467L108.325 197.595L108.679 203.939C108.811 206.306 110.88 208.098 113.237 207.884L113.322 207.875C114.402 207.775 115.401 207.26 116.11 206.438C116.818 205.616 117.179 204.552 117.119 203.468L116.749 196.852L116.385 190.339C127.559 190.959 138.747 189.407 149.329 185.767C167.079 179.67 182.378 167.989 192.938 152.47C203.498 136.951 208.752 118.429 207.913 99.6749ZM197.851 104.109C197.566 146.155 163.194 180.322 121.132 180.322C119.353 180.322 117.58 180.248 115.81 180.126L115.725 178.56C115.382 172.39 115.058 166.531 114.82 162.046C114.718 160.092 114.62 158.138 114.526 156.184C123.122 150.671 128.119 146.497 131.176 142.29C132.811 140.027 133.823 137.703 134.331 135.474C134.844 133.239 134.896 131.175 134.899 129.228C134.899 128.347 134.887 127.485 134.887 126.613C134.884 125.512 134.783 123.877 134.615 121.568C134.025 113.566 132.57 98.2408 131.259 84.8603C129.947 71.489 128.783 60.1021 128.783 60.0991C128.726 59.5466 128.561 59.0106 128.298 58.5218C128.034 58.033 127.677 57.6009 127.246 57.2503C126.815 56.8996 126.32 56.6372 125.788 56.4781C125.256 56.319 124.698 56.2662 124.146 56.3228C123.593 56.3794 123.058 56.5443 122.569 56.8081C122.08 57.0718 121.648 57.4293 121.298 57.86C120.947 58.2907 120.685 58.7863 120.526 59.3184C120.367 59.8506 120.314 60.4088 120.371 60.9613C121.811 75.0344 123.196 89.1132 124.525 103.197C125.06 108.897 125.537 114.22 125.882 118.412C126.056 120.507 126.194 122.317 126.288 123.739C126.383 125.149 126.432 126.219 126.429 126.616C126.429 127.567 126.441 128.436 126.441 129.231C126.444 131.004 126.374 132.371 126.093 133.573C125.87 134.539 125.498 135.464 124.989 136.315C124.127 137.792 122.608 139.627 119.9 141.935C117.198 144.244 113.341 146.996 107.979 150.335L105.983 151.576V153.928C105.986 154.276 106.002 154.674 106.026 155.276C106.167 158.789 106.695 168.443 107.282 179.013C105.65 178.716 104.028 178.365 102.419 177.961C102.74 172.188 103.04 166.733 103.263 162.492C103.394 160.015 103.515 157.537 103.626 155.059C103.645 154.567 103.657 154.233 103.657 153.925V151.573L101.664 150.332C92.1121 144.412 87.3896 140.269 85.3294 137.355C84.2871 135.887 83.8347 134.771 83.5474 133.569C83.2692 132.368 83.1959 131.001 83.1989 129.228C83.1989 128.433 83.2111 127.561 83.2111 126.613C83.2081 126.063 83.2967 124.39 83.4618 122.189C84.0364 114.376 85.4914 99.0297 86.7966 85.6859C87.6069 77.4421 88.4301 69.1995 89.2664 60.9583C89.3412 59.8633 88.9878 58.7821 88.2808 57.9428C87.5738 57.1035 86.5685 56.5719 85.477 56.46C84.3856 56.3481 83.2934 56.6648 82.4309 57.3432C81.5685 58.0216 81.0032 59.0086 80.8545 60.096C80.8545 60.0991 79.3323 74.9748 77.8131 90.6822C77.0827 98.1603 76.3847 105.642 75.7193 113.126C75.4684 115.937 75.2371 118.75 75.0254 121.565C74.8573 123.877 74.7564 125.509 74.7534 126.61C74.7534 127.479 74.7412 128.341 74.7412 129.224C74.7442 131.172 74.7962 133.236 75.3097 135.471C75.7253 137.27 76.4139 138.994 77.3515 140.584C78.8585 143.155 81.0776 145.653 84.2534 148.366C87.0258 150.729 90.5563 153.279 95.1168 156.203C94.7981 162.588 94.4588 168.973 94.0989 175.356C65.5131 164.565 45.7886 137.618 44.5048 106.83C44.4452 105.748 44.4177 104.664 44.4223 103.58C44.4223 102.476 44.4437 101.393 44.5048 100.311C46.2165 66.5967 74.0137 40.1873 107.793 40.1873C109.495 40.1873 111.225 40.2546 112.934 40.3922C144.038 42.8567 169.014 68.2142 171.029 99.3783C171.867 112.523 168.603 125.604 161.688 136.814C154.772 148.023 144.548 156.806 132.426 161.951C131.133 162.501 130.143 163.52 129.642 164.813C129.153 166.07 129.189 167.437 129.788 168.776C130.601 170.58 132.399 171.745 134.37 171.745C135.034 171.745 135.685 171.613 136.302 171.353C149.649 165.756 161.044 156.335 169.052 144.276C177.06 132.216 181.324 118.057 181.308 103.58C181.308 63.0222 148.333 30.0297 107.802 30.0297C104.874 30.0297 101.918 30.2162 98.7572 30.5984C61.998 35.1207 34.2773 66.4958 34.2773 103.58C34.2773 104.8 34.317 106.044 34.3812 107.267L34.3628 107.273C35.0632 124.851 41.0972 141.798 51.6623 155.861C62.2273 169.924 76.8225 180.435 93.5059 185.997L93.4723 186.581L92.8824 197.05C92.8798 197.122 92.8757 197.193 92.8701 197.264L92.8518 197.261C45.7 191.654 10.1481 151.579 10.1481 104.044C10.1481 52.2683 52.2534 10.1485 104.012 10.1485C118.369 10.1485 132.148 13.3224 144.968 19.5815C177.047 35.2033 197.814 68.2998 197.875 103.895L197.851 104.109V104.109ZM99.1057 57.3563C98.6897 57.3328 98.2732 57.3916 97.8799 57.5294C97.4867 57.6672 97.1245 57.8813 96.8142 58.1594C96.5038 58.4375 96.2513 58.7741 96.0713 59.15C95.8912 59.5259 95.787 59.9336 95.7648 60.3498L93.1208 107.931C93.0855 108.353 93.1352 108.779 93.2671 109.182C93.3991 109.585 93.6105 109.958 93.8888 110.278C94.1672 110.598 94.5069 110.859 94.8879 111.046C95.2688 111.232 95.6833 111.341 96.1067 111.364C96.5302 111.388 96.9541 111.326 97.3533 111.183C97.7526 111.04 98.1191 110.818 98.4311 110.53C98.7432 110.243 98.9945 109.896 99.1702 109.51C99.346 109.124 99.4425 108.706 99.4542 108.282L102.095 60.6984C102.119 60.2825 102.06 59.866 101.922 59.4729C101.785 59.0797 101.571 58.7175 101.293 58.4071C101.016 58.0967 100.68 57.8441 100.304 57.6638C99.9288 57.4834 99.5215 57.379 99.1057 57.3563ZM110.535 57.3563C109.695 57.4029 108.908 57.7811 108.347 58.4077C107.786 59.0344 107.496 59.8583 107.542 60.6984L110.183 108.282C110.263 109.098 110.654 109.851 111.276 110.385C111.898 110.919 112.702 111.191 113.52 111.146C114.338 111.101 115.107 110.741 115.666 110.142C116.225 109.542 116.531 108.75 116.519 107.931L113.875 60.3498C113.853 59.9337 113.748 59.5262 113.568 59.1505C113.388 58.7748 113.135 58.4384 112.825 58.1604C112.515 57.8824 112.153 57.6682 111.76 57.5303C111.367 57.3923 110.95 57.3332 110.535 57.3563V57.3563Z" fill="#F69221"/>
<path d="M268.6 154.6C268.6 158.6 268.6 161.867 268.6 164.4C268.733 166.933 268.867 168.933 269 170.4C269.133 172 269.267 173.2 269.4 174C261.133 174 254.8 172.267 250.4 168.8C246.133 165.333 244 159.667 244 151.8L244.2 80.8C244.2 74.1333 245.133 67.9333 247 62.2C249 56.4667 251.933 51.4 255.8 47C259.533 42.6 264.067 39.2 269.4 36.8C274.733 34.2667 280.8 33 287.6 33C291.6 33 295 33.6667 297.8 35C300.867 36.2 303.267 38.2 305 41C306.067 43.1333 306.6 45.2667 306.6 47.4C306.6 48.8667 306.4 50.2667 306 51.6L305.6 52.8L304.6 52.4C302.733 51.7333 300.533 51.2 298 50.8C295.6 50.2667 292.867 50 289.8 50C288.733 50 287.4 50.1333 285.8 50.4C284.2 50.6667 282.467 51.2667 280.6 52.2C278.733 53.1333 276.933 54.4667 275.2 56.2C273.6 57.8 272.2 60 271 62.8C270.2 64.6667 269.533 66.8667 269 69.4C268.6 71.9333 268.4 74.8 268.4 78V80.2H295.4C295.4 86.2 293.733 91 290.4 94.6C287.067 98.2 282.333 100 276.2 100H268.4L268.6 154.6ZM343.425 52.8C340.625 57.4667 336.758 59.8 331.825 59.8C329.692 59.8 327.692 59.3333 325.825 58.4C323.825 57.2 322.292 55.6667 321.225 53.8C320.158 51.8 319.625 49.6667 319.625 47.4C319.625 44.8667 320.225 42.6 321.425 40.6C322.625 38.3333 324.292 36.6 326.425 35.4C328.558 34.0667 330.758 33.4 333.025 33.4C335.025 33.4 336.958 33.9333 338.825 35C340.958 36.0667 342.558 37.6 343.625 39.6C344.692 41.6 345.225 43.7333 345.225 46C345.225 48.4 344.625 50.6667 343.425 52.8ZM359.025 156C358.358 156.933 357.225 157.733 355.625 158.4C354.025 158.933 352.425 159.067 350.825 158.8C349.225 158.533 347.825 157.733 346.625 156.4C345.425 154.933 344.825 152.6 344.825 149.4V101.6C344.825 97.6 344.825 94.4 344.825 92C344.958 89.4667 345.092 87.4667 345.225 86C345.358 84.4 345.492 83.1333 345.625 82.2C337.358 82.2 331.092 83.9333 326.825 87.4C322.558 90.8667 320.425 96.6 320.425 104.6L320.225 151.8C320.225 155.133 320.692 158.333 321.625 161.4C322.692 164.467 324.225 167.133 326.225 169.4C328.358 171.667 330.958 173.4 334.025 174.6C337.092 175.933 340.692 176.4 344.825 176C349.092 175.733 352.225 174.533 354.225 172.4C356.225 170.133 357.558 167.8 358.225 165.4C359.025 162.6 359.292 159.467 359.025 156ZM425.811 150.6C426.078 148.333 425.411 146.467 423.811 145C422.344 143.4 420.144 141.933 417.211 140.6C414.411 139.133 411.078 137.6 407.211 136C403.344 134.4 399.278 132.267 395.011 129.6C391.811 127.733 389.144 125.533 387.011 123C385.011 120.333 383.544 117.533 382.611 114.6C381.678 111.533 381.278 108.467 381.411 105.4C381.544 102.2 382.278 99.0667 383.611 96C384.944 93.0667 386.678 90.6 388.811 88.6C390.944 86.6 393.278 85 395.811 83.8C398.478 82.4667 401.144 81.5333 403.811 81C406.478 80.4667 408.944 80.2 411.211 80.2H413.611C420.678 80.6 427.144 82.3333 433.011 85.4C438.878 88.4667 443.878 92.5333 448.011 97.6L448.611 98.2L448.011 99C446.678 100.867 445.211 102.267 443.611 103.2C442.144 104.133 440.478 104.6 438.611 104.6C436.744 104.6 434.944 104.267 433.211 103.6C431.478 102.8 429.611 102 427.611 101.2C425.078 100.133 422.678 99.2667 420.411 98.6C418.278 97.8 416.078 97.4 413.811 97.4C410.878 97.4 408.678 98.0667 407.211 99.4C405.744 100.6 404.878 102.067 404.611 103.8C404.344 106.333 405.144 108.467 407.011 110.2C408.878 111.8 411.611 113.333 415.211 114.8C419.344 116.533 423.744 118.467 428.411 120.6C433.078 122.6 437.211 125.133 440.811 128.2C444.411 131.133 447.144 134.733 449.011 139C450.878 143.133 451.078 148.2 449.611 154.2C448.944 156.6 447.811 159.133 446.211 161.8C444.611 164.333 442.344 166.667 439.411 168.8C436.611 170.933 433.144 172.667 429.011 174C425.011 175.467 420.278 176.2 414.811 176.2C413.744 176.2 412.878 176.133 412.211 176C405.811 175.733 399.478 174.067 393.211 171C387.078 167.933 381.944 163.867 377.811 158.8L377.211 158.2L377.811 157.4C378.478 156.333 379.211 155.467 380.011 154.8C380.811 154.133 381.544 153.533 382.211 153C383.811 152.2 385.411 151.8 387.011 151.8C388.878 151.8 390.678 152.2 392.411 153C394.144 153.667 396.011 154.4 398.011 155.2C399.878 156.133 401.944 156.933 404.211 157.6C406.611 158.267 409.211 158.733 412.011 159C416.811 159 420.211 158.067 422.211 156.2C424.344 154.333 425.544 152.467 425.811 150.6ZM499.363 52.8C496.563 57.4667 492.696 59.8 487.763 59.8C485.629 59.8 483.629 59.3333 481.763 58.4C479.763 57.2 478.229 55.6667 477.163 53.8C476.096 51.8 475.563 49.6667 475.563 47.4C475.563 44.8667 476.163 42.6 477.363 40.6C478.563 38.3333 480.229 36.6 482.363 35.4C484.496 34.0667 486.696 33.4 488.963 33.4C490.963 33.4 492.896 33.9333 494.763 35C496.896 36.0667 498.496 37.6 499.563 39.6C500.629 41.6 501.163 43.7333 501.163 46C501.163 48.4 500.563 50.6667 499.363 52.8ZM514.963 156C514.296 156.933 513.163 157.733 511.563 158.4C509.963 158.933 508.363 159.067 506.763 158.8C505.163 158.533 503.763 157.733 502.563 156.4C501.363 154.933 500.763 152.6 500.763 149.4V101.6C500.763 97.6 500.763 94.4 500.763 92C500.896 89.4667 501.029 87.4667 501.163 86C501.296 84.4 501.429 83.1333 501.563 82.2C493.296 82.2 487.029 83.9333 482.763 87.4C478.496 90.8667 476.363 96.6 476.363 104.6L476.163 151.8C476.163 155.133 476.629 158.333 477.563 161.4C478.629 164.467 480.163 167.133 482.163 169.4C484.296 171.667 486.896 173.4 489.963 174.6C493.029 175.933 496.629 176.4 500.763 176C505.029 175.733 508.163 174.533 510.163 172.4C512.163 170.133 513.496 167.8 514.163 165.4C514.963 162.6 515.229 159.467 514.963 156ZM545.948 123C549.548 120.733 553.615 119.067 558.148 118C562.682 116.8 567.415 116.2 572.348 116.2C579.282 116.2 585.882 117.2 592.148 119.2C591.748 115.067 590.882 111.4 589.548 108.2C587.815 104.067 585.215 101.067 581.748 99.2C580.415 98.5333 578.948 98.0667 577.348 97.8C575.882 97.4 574.148 97.2 572.148 97.2H569.948C568.082 97.3333 566.215 97.6667 564.348 98.2C562.482 98.6 560.615 99.1333 558.748 99.8C556.882 100.467 555.015 101.067 553.148 101.6C551.282 102 549.482 102.2 547.748 102.2C545.882 102.2 544.082 101.8 542.348 101C540.748 100.067 539.348 98.5333 538.148 96.4L537.748 95.6L538.148 95C542.148 90.7333 546.815 87.3333 552.148 84.8C557.615 82.1333 563.548 80.6 569.948 80.2C570.615 80.0667 571.148 80 571.548 80C572.082 80 572.682 80 573.348 80C579.482 80 585.082 81.1333 590.148 83.4C595.215 85.5333 599.615 88.5333 603.348 92.4C610.948 100.667 614.882 111.533 615.148 125V126.6C615.148 140.467 611.615 151.733 604.548 160.4C601.082 164.667 596.882 168.133 591.948 170.8C587.148 173.467 581.748 175.133 575.748 175.8C574.948 175.933 574.148 176 573.348 176C572.548 176 571.682 176 570.748 176C567.948 176 565.015 175.733 561.948 175.2C558.882 174.8 555.882 173.933 552.948 172.6C549.882 171.4 547.082 169.867 544.548 168C542.015 166 539.882 163.467 538.148 160.4C535.615 156.533 534.282 151.8 534.148 146.2V145C534.148 139.8 535.215 135.467 537.348 132C539.215 128.533 542.082 125.533 545.948 123ZM587.348 132.6C585.615 132.333 583.615 132.067 581.348 131.8C579.215 131.533 577.015 131.4 574.748 131.4C572.882 131.4 571.082 131.533 569.348 131.8C567.615 131.933 566.015 132.267 564.548 132.8C561.215 133.867 558.682 135.533 556.948 137.8C556.282 138.6 555.748 139.533 555.348 140.6C554.948 141.533 554.682 142.6 554.548 143.8C554.415 144.2 554.348 144.8 554.348 145.6C554.348 146.933 554.548 148.4 554.948 150C555.348 151.467 556.148 152.867 557.348 154.2C558.415 155.533 559.948 156.667 561.948 157.6C564.082 158.533 566.882 159 570.348 159C571.415 159 572.215 158.933 572.748 158.8C576.482 158.667 579.748 157.6 582.548 155.6C583.882 154.8 585.015 153.867 585.948 152.8C586.882 151.6 587.682 150.333 588.348 149C589.815 146.467 590.815 143.867 591.348 141.2C591.882 138.533 592.148 136.067 592.148 133.8C592.015 133.8 591.882 133.8 591.748 133.8C591.748 133.667 591.682 133.6 591.548 133.6C591.015 133.467 590.415 133.333 589.748 133.2C589.082 133.067 588.282 132.867 587.348 132.6ZM640.27 123.6C640.27 114.667 641.537 107.4 644.07 101.8C646.737 96.0667 650.07 91.6 654.07 88.4C658.204 85.2 662.804 83.0667 667.87 82C673.07 80.8 678.27 80.2 683.47 80.2C688.537 80.2 693.67 80.8 698.87 82C704.07 83.0667 708.737 85.2 712.87 88.4C717.137 91.6 720.537 96.0667 723.07 101.8C725.737 107.4 727.07 114.667 727.07 123.6L727.87 174C719.737 174 713.47 172.267 709.07 168.8C704.67 165.333 702.47 159.667 702.47 151.8L702.67 123.6C702.67 118 702.07 113.533 700.87 110.2C699.804 106.733 698.337 104.067 696.47 102.2C694.604 100.2 692.537 98.8667 690.27 98.2C688.004 97.5333 685.737 97.2 683.47 97.2C681.204 97.2 678.937 97.5333 676.67 98.2C674.537 98.8667 672.537 100.2 670.67 102.2C668.937 104.067 667.47 106.733 666.27 110.2C665.204 113.533 664.67 118 664.67 123.6V154.6C664.804 158.6 664.87 161.867 664.87 164.4C665.004 166.933 665.137 168.933 665.27 170.4C665.404 172 665.537 173.2 665.67 174C657.404 174 651.07 172.267 646.67 168.8C642.27 165.333 640.07 159.667 640.07 151.8L640.27 123.6ZM808.781 156.4C808.781 156.8 808.848 157.267 808.981 157.8C809.248 158.867 809.381 159.867 809.381 160.8C809.381 163.2 808.848 165.4 807.781 167.4C806.715 169.267 805.248 170.867 803.381 172.2C799.648 174.867 795.115 176.2 789.781 176.2C785.381 176.2 781.048 175.2 776.781 173.2C772.515 171.2 768.648 168.2 765.181 164.2C761.715 160.2 758.915 155.267 756.781 149.4C754.781 143.4 753.781 136.4 753.781 128.4L753.981 70.6C753.981 62.6 756.115 56.8667 760.381 53.4C764.648 49.9333 770.848 48.2 778.981 48.2C778.848 49.1333 778.715 50.4 778.581 52C778.448 53.4667 778.315 55.4667 778.181 58C778.181 60.4 778.181 63.6 778.181 67.6L778.381 80.2H805.181C805.181 86.2 803.515 91 800.181 94.6C796.848 98.2 792.115 100 785.981 100H778.381L778.181 128.4C778.181 134 778.648 138.733 779.581 142.6C780.648 146.333 782.048 149.4 783.781 151.8C787.381 156.333 792.048 158.6 797.781 158.6C800.181 158.6 802.581 158.267 804.981 157.6C806.315 157.2 807.581 156.8 808.781 156.4Z" fill="#444444"/>
<path d="M879 27.2776C879 27.2776 855.347 62.6649 787.108 62.6649V27.2776L879 27.2776ZM787.108 100.641V80.319H839.877C839.877 80.319 826.292 100.641 787.108 100.641Z" fill="#444444"/>
</svg>
