<svg width="164" height="112" viewBox="0 0 164 112" fill="none" xmlns="http://www.w3.org/2000/svg">
<path d="M81.573 2.52539C67.679 2.52539 54.603 4.38139 43.153 7.64739C45.1309 7.33019 47.1308 7.17035 49.134 7.16939C54.028 7.16939 58.778 8.09039 62.159 9.70239C64.878 10.9934 66.497 12.6044 66.497 14.0114C66.497 15.4204 64.878 17.0314 62.159 18.3234C58.778 19.9334 54.027 20.8564 49.134 20.8564C44.242 20.8564 39.493 19.9334 36.11 18.3234C33.394 17.0314 31.771 15.4214 31.771 14.0114C31.771 12.8364 32.917 11.5204 34.874 10.3654C13.796 18.2274 0 31.2564 0 46.0104C0 70.0264 36.522 89.4954 81.573 89.4954C126.626 89.4954 163.148 70.0254 163.148 46.0104C163.148 21.9944 126.625 2.52539 81.573 2.52539ZM73.281 18.9654C76.665 17.3554 81.411 16.4324 86.306 16.4324C91.198 16.4324 95.948 17.3554 99.329 18.9654C102.048 20.2574 103.668 21.8674 103.668 23.2754C103.668 24.6834 102.048 26.2954 99.329 27.5874C95.947 29.1974 91.197 30.1204 86.306 30.1204C81.41 30.1204 76.665 29.1974 73.281 27.5874C70.564 26.2954 68.941 24.6844 68.941 23.2754C68.94 21.8684 70.564 20.2574 73.281 18.9654ZM100.168 30.7194C98.224 31.8354 96.052 32.5314 93.855 33.0034C91.653 33.4824 89.397 33.6844 87.143 33.6984C84.89 33.6844 82.633 33.4844 80.432 33.0044C78.234 32.5314 76.062 31.8354 74.119 30.7194C76.213 31.4944 78.373 31.9994 80.555 32.3264C84.9247 32.9612 89.3632 32.9615 93.733 32.3274C95.915 32.0024 98.074 31.4964 100.168 30.7194ZM42.546 22.3264C46.9158 22.9605 51.3541 22.9609 55.724 22.3274C57.906 22.0024 60.065 21.4964 62.16 20.7184C60.216 21.8354 58.043 22.5304 55.847 23.0034C53.645 23.4824 51.389 23.6844 49.135 23.6984C46.882 23.6844 44.625 23.4834 42.424 23.0044C40.227 22.5314 38.054 21.8354 36.111 20.7184C38.205 21.4944 40.364 22.0004 42.546 22.3264ZM40.242 31.6394C43.627 30.0294 48.374 29.1064 53.267 29.1064C58.16 29.1064 62.91 30.0294 66.292 31.6394C69.011 32.9314 70.63 34.5424 70.63 35.9494C70.63 37.3574 69.01 38.9694 66.292 40.2614C62.909 41.8714 58.16 42.7944 53.267 42.7944C48.374 42.7944 43.626 41.8714 40.242 40.2614C37.527 38.9694 35.904 37.3584 35.904 35.9494C35.904 34.5424 37.527 32.9314 40.242 31.6394ZM66.292 43.3864C64.348 44.5054 62.175 45.1994 59.979 45.6714C57.776 46.1514 55.52 46.3534 53.267 46.3664C51.015 46.3524 48.758 46.1534 46.556 45.6734C44.359 45.1994 42.186 44.5054 40.242 43.3864C42.338 44.1634 44.497 44.6694 46.679 44.9944C48.863 45.3054 51.063 45.4754 53.267 45.4714C55.4723 45.4723 57.6747 45.3132 59.857 44.9954C62.039 44.6704 64.198 44.1664 66.292 43.3864ZM81.573 80.2674C54.773 80.2674 31.432 73.1894 19.204 62.7234C32.1 71.6544 53.611 77.5084 77.983 77.5084C117.447 77.5084 149.439 62.1714 149.439 43.2514C149.439 37.1814 146.13 31.4834 140.353 26.5384C148.338 32.0684 153.029 38.7754 153.029 46.0104C153.029 64.9294 121.037 80.2674 81.573 80.2674Z" fill="#FA6119"/>
<path d="M53.842 17.0832C52.6583 17.3135 51.455 17.4277 50.249 17.4242C50.008 17.4242 49.767 17.4202 49.521 17.4122L49.499 17.4092C48.81 17.3602 48.097 17.3092 47.442 17.2092C46.179 17.0132 45.111 16.6992 44.178 16.2472L44.173 16.2462C42.927 15.6132 42.329 14.8662 42.446 14.0862L42.447 14.0832C42.575 13.5662 42.907 13.1662 43.524 12.7822L43.529 12.7792C44.0561 12.4721 44.6217 12.2366 45.211 12.0792C45.464 12.0022 45.727 11.9352 46.003 11.8802C47.2771 11.6288 48.5845 11.5943 49.87 11.7782L49.877 11.7792C50.954 11.9452 51.821 12.2912 52.257 12.7232C52.639 13.1052 52.644 13.5172 52.265 13.8842L52.261 13.8902C52.049 14.0702 51.71 14.2302 51.306 14.3352C50.6637 14.5372 49.9821 14.5815 49.319 14.4642L49.308 14.4612C48.9 14.3732 48.647 14.1952 48.647 13.9952C48.647 13.8842 48.81 13.8152 48.927 13.7662C48.968 13.7472 49.007 13.7312 49.032 13.7152C49.136 13.6402 49.08 13.5662 49.016 13.5172C48.886 13.4192 48.617 13.3462 48.39 13.3462C47.958 13.3462 47.622 13.3762 47.362 13.4372C47.3007 13.4579 47.2411 13.4836 47.184 13.5142C46.683 13.8342 46.508 14.0882 46.598 14.3622C46.711 14.6282 46.937 14.8502 47.289 15.0442C48.058 15.4182 48.98 15.6182 50.031 15.6422H50.039C51.0486 15.6843 52.0587 15.5713 53.034 15.3072C53.136 15.2752 53.238 15.2442 53.337 15.2092C54.125 14.9172 54.632 14.6002 54.981 14.1822C55.3 13.7462 55.371 13.3292 55.202 12.8672C54.905 12.3112 54.445 11.9042 53.71 11.5472C52.409 10.9272 50.728 10.5612 48.711 10.4582C47.256 10.4112 45.948 10.5092 44.712 10.7572C43.716 10.9852 42.794 11.2842 42.013 11.6572C41.198 12.0442 40.573 12.4842 40.165 12.9282C40.048 13.0932 39.909 13.2852 39.791 13.4482C39.6969 13.6217 39.6448 13.8149 39.639 14.0122C39.639 14.7832 40.527 15.6622 42.013 16.3682C43.862 17.2502 46.457 17.7542 49.133 17.7542C51.582 17.7542 53.958 17.3272 55.763 16.5802C55.643 16.6182 55.526 16.6592 55.404 16.6942C54.92 16.8452 54.402 16.9752 53.842 17.0832ZM56.255 11.6572C54.74 10.9352 52.722 10.4722 50.572 10.3262C52.017 10.5142 53.265 10.8542 54.291 11.3452C55.078 11.7282 55.588 12.1792 55.9 12.7652L55.904 12.7732C56.089 13.2732 56.014 13.7242 55.665 14.1942L55.662 14.1982C55.288 14.6492 54.717 15.0072 53.866 15.3212C53.6893 15.3834 53.5105 15.4397 53.33 15.4902C52.271 15.8152 51.065 15.9642 49.81 15.9202C48.613 15.8942 47.567 15.6662 46.704 15.2462L46.694 15.2402C46.288 15.0182 46.027 14.7612 45.896 14.4592L45.895 14.4532C45.753 14.0322 46.182 13.6942 46.568 13.4472L46.579 13.4402C47.308 13.0412 47.933 13.0712 48.584 13.0712C48.996 13.0712 49.438 13.1872 49.66 13.3542C49.847 13.4942 49.849 13.6482 49.668 13.7772L49.662 13.7812C49.6063 13.8139 49.5481 13.8423 49.488 13.8662C49.407 13.9002 49.36 13.9232 49.36 13.9412C49.36 14.0572 49.497 14.1582 49.729 14.2092C50.1597 14.2835 50.6012 14.2648 51.024 14.1542C51.264 14.0732 51.466 13.9682 51.603 13.8522C51.919 13.5422 51.915 13.1932 51.59 12.8702C51.212 12.4912 50.454 12.1912 49.511 12.0452C48.3547 11.8797 47.1787 11.9115 46.033 12.1392C45.8522 12.1744 45.6727 12.2164 45.495 12.2652C45.015 12.4112 44.573 12.6042 44.142 12.8552C43.577 13.2052 43.273 13.5742 43.155 14.0482C43.046 14.7792 43.585 15.4522 44.759 16.0482C45.633 16.4702 46.631 16.7652 47.809 16.9472C48.416 17.0412 49.1 17.0902 49.762 17.1372C51.182 17.1832 52.509 17.0822 53.817 16.8262C54.2493 16.7427 54.6774 16.6392 55.1 16.5162C55.7713 16.3138 56.4182 16.0382 57.029 15.6942C57.812 15.2222 58.32 14.7352 58.601 14.1872C58.611 14.1282 58.625 14.0702 58.625 14.0122C58.627 13.2442 57.74 12.3632 56.255 11.6572Z" fill="#FA6119"/>
<path d="M58.6029 14.187C58.3209 14.735 57.8129 15.222 57.0309 15.694C56.4204 16.0386 55.7734 16.3143 55.1019 16.516C54.7009 16.633 54.2739 16.737 53.8189 16.826C52.4835 17.0833 51.123 17.1876 49.7639 17.137C49.1019 17.089 48.4179 17.04 47.8109 16.947C46.6319 16.764 45.6339 16.469 44.7609 16.048C43.5859 15.452 43.0469 14.779 43.1569 14.048C43.2749 13.573 43.5789 13.204 44.1439 12.855C44.5704 12.6062 45.0245 12.4082 45.4969 12.265C45.6699 12.218 45.8489 12.175 46.0349 12.139C47.1806 11.9114 48.3566 11.8796 49.5129 12.045C50.4559 12.191 51.2129 12.491 51.5919 12.87C51.9169 13.193 51.9209 13.543 51.6049 13.852C51.4319 13.987 51.2357 14.0893 51.0259 14.154C50.6032 14.2645 50.1616 14.2833 49.7309 14.209C49.4989 14.158 49.3619 14.058 49.3619 13.941C49.3619 13.922 49.4089 13.9 49.4899 13.866C49.55 13.8421 49.6082 13.8137 49.6639 13.781L49.6699 13.777C49.8509 13.648 49.8489 13.494 49.6619 13.354C49.4409 13.187 48.9979 13.071 48.5859 13.071C47.9349 13.071 47.3089 13.041 46.5809 13.44L46.5699 13.447C46.1829 13.694 45.7549 14.032 45.8969 14.453L45.8979 14.459C46.0289 14.762 46.2899 15.019 46.6959 15.24L46.7059 15.246C47.5699 15.666 48.6159 15.893 49.8119 15.92C51.0669 15.964 52.2729 15.816 53.3319 15.49C53.5129 15.438 53.6929 15.384 53.8679 15.321C54.7199 15.007 55.2899 14.649 55.6639 14.198L55.6669 14.194C56.0159 13.724 56.0909 13.273 55.9059 12.773L55.9019 12.765C55.5899 12.179 55.0789 11.728 54.2929 11.345C53.2669 10.855 52.0199 10.515 50.5739 10.326C48.6104 10.1809 46.6362 10.3258 44.7149 10.756C45.9509 10.508 47.2589 10.41 48.7139 10.457C50.7309 10.56 52.4119 10.926 53.7129 11.546C54.4479 11.903 54.9079 12.311 55.2049 12.866C55.3739 13.329 55.3039 13.746 54.9839 14.181C54.6349 14.599 54.1279 14.916 53.3399 15.208C53.2409 15.243 53.1389 15.273 53.0369 15.306C52.0616 15.5702 51.0515 15.6832 50.0419 15.641H50.0339C48.9829 15.618 48.0599 15.417 47.2919 15.043C46.9399 14.85 46.7139 14.627 46.6009 14.361C46.5109 14.088 46.6849 13.834 47.1869 13.513C47.2389 13.484 47.2999 13.459 47.3649 13.436C47.6259 13.375 47.9619 13.345 48.3929 13.345C48.6209 13.345 48.8899 13.418 49.0189 13.516C49.0829 13.565 49.1389 13.639 49.0349 13.714C49.0099 13.73 48.9709 13.746 48.9299 13.765C48.8119 13.815 48.6499 13.883 48.6499 13.994C48.6499 14.194 48.9029 14.372 49.3109 14.46L49.3219 14.463C49.985 14.5803 50.6666 14.536 51.3089 14.334C51.7129 14.229 52.0519 14.068 52.2639 13.889L52.2679 13.883C52.6469 13.516 52.6419 13.104 52.2599 12.722C51.8239 12.289 50.9569 11.944 49.8799 11.778L49.8729 11.777C48.5874 11.5926 47.28 11.6271 46.0059 11.879C45.7389 11.9326 45.4746 11.999 45.2139 12.078C44.6249 12.2361 44.0593 12.4715 43.5319 12.778L43.5269 12.781C42.9099 13.165 42.5779 13.565 42.4499 14.082L42.4489 14.085C42.3309 14.865 42.9289 15.612 44.1759 16.245L44.1809 16.246C45.1139 16.698 46.1809 17.012 47.4449 17.208C48.0999 17.309 48.8119 17.359 49.5019 17.408L49.5239 17.411C49.7689 17.419 50.0109 17.423 50.2519 17.423C51.4949 17.423 52.6769 17.311 53.8449 17.082C54.4049 16.974 54.9239 16.844 55.4079 16.693C55.5299 16.658 55.6479 16.617 55.7669 16.579C55.9329 16.51 56.1009 16.442 56.2579 16.367C57.6289 15.716 58.4819 14.915 58.6029 14.187ZM97.2049 23.466C96.8799 24.062 96.2949 24.591 95.3929 25.104C94.7399 25.459 94.005 25.755 93.174 25.999C92.6868 26.1332 92.194 26.246 91.6969 26.337C90.1583 26.6169 88.5938 26.7295 87.0309 26.673C86.2659 26.622 85.4789 26.569 84.7819 26.467C83.4249 26.268 82.2759 25.948 81.2699 25.488C79.9189 24.84 79.296 24.108 79.424 23.312C79.5589 22.796 79.9089 22.394 80.5579 22.013C81.0525 21.7427 81.5753 21.5278 82.1169 21.372C82.3169 21.32 82.5199 21.274 82.7339 21.235C84.055 20.9876 85.407 20.9532 86.7389 21.133C87.8229 21.292 88.6959 21.618 89.1339 22.03C89.507 22.382 89.513 22.759 89.1479 23.098C88.9467 23.2466 88.7204 23.358 88.4799 23.427C88.0309 23.535 87.4999 23.574 86.9899 23.485C86.7219 23.43 86.5659 23.323 86.5659 23.194C86.5659 23.173 86.6209 23.151 86.7139 23.114C86.7769 23.088 86.8519 23.058 86.9119 23.022L86.9179 23.016C87.1279 22.875 87.125 22.707 86.91 22.555C86.657 22.374 86.1479 22.249 85.6719 22.249C84.9249 22.249 84.2029 22.214 83.3639 22.649L83.3509 22.656C82.9059 22.926 82.414 23.293 82.577 23.752L82.5779 23.756C82.7269 24.086 83.0279 24.364 83.4969 24.608L83.5079 24.614C84.5029 25.071 85.7049 25.319 87.0839 25.346C88.5269 25.395 89.917 25.232 91.1339 24.879C91.3439 24.823 91.5509 24.763 91.7509 24.695C92.7309 24.353 93.3889 23.965 93.8199 23.472L93.8229 23.469C94.2229 22.958 94.3089 22.467 94.0959 21.923L94.0929 21.915C93.7329 21.277 93.1449 20.787 92.2399 20.37C91.0589 19.837 89.6229 19.467 87.9579 19.262C85.6995 19.1041 83.43 19.2616 81.2149 19.73C82.6389 19.46 84.1439 19.353 85.8179 19.406C88.1379 19.516 90.0769 19.915 91.5729 20.59C92.4199 20.98 92.9479 21.422 93.2899 22.026C93.4849 22.529 93.4049 22.984 93.035 23.456C92.636 23.913 92.0509 24.258 91.1429 24.574C91.028 24.6128 90.912 24.6481 90.7949 24.68C89.7459 24.959 88.5679 25.085 87.3489 25.044H87.3389C86.1289 25.02 85.0669 24.801 84.1819 24.395C83.7779 24.185 83.5179 23.942 83.3859 23.654C83.2829 23.357 83.4849 23.081 84.0609 22.731C84.1219 22.7 84.1919 22.672 84.2659 22.648C84.5669 22.582 84.9539 22.549 85.4509 22.549C85.7139 22.549 86.0219 22.629 86.1709 22.735C86.2469 22.788 86.3089 22.869 86.1909 22.951C86.1517 22.9713 86.1113 22.9893 86.0699 23.005C85.9329 23.061 85.7499 23.135 85.7499 23.256C85.7499 23.473 86.0389 23.667 86.5089 23.763L86.5229 23.765C87.3289 23.907 88.1629 23.822 88.8079 23.626C89.2739 23.51 89.6619 23.337 89.9069 23.142L89.9129 23.136C90.3479 22.736 90.3449 22.287 89.9029 21.872C89.4009 21.399 88.403 21.025 87.1629 20.843H87.1569C85.6761 20.6436 84.173 20.6811 82.7039 20.954C82.3859 21.016 82.0839 21.086 81.7939 21.17C81.0929 21.352 80.4639 21.6 79.8569 21.934L79.8519 21.936C79.1389 22.352 78.7569 22.789 78.6109 23.35L78.6099 23.355C78.4749 24.203 79.1619 25.015 80.5979 25.704L80.6009 25.705C81.6749 26.196 82.9059 26.538 84.3599 26.751C85.1129 26.862 85.9329 26.916 86.7239 26.97L86.7489 26.972C87.0329 26.981 87.3119 26.986 87.5889 26.986C89.0189 26.986 90.3819 26.863 91.7249 26.615C92.3699 26.497 92.966 26.355 93.5229 26.193C93.6649 26.153 93.7999 26.11 93.9369 26.068C94.1279 25.993 94.3239 25.919 94.5029 25.839C96.0829 25.127 97.0639 24.257 97.2049 23.466Z" fill="#F9B593"/>
<path d="M59.1 39.2668C57.6287 39.5149 56.139 39.6377 54.647 39.6338C54.349 39.6338 54.049 39.6288 53.746 39.6198L53.717 39.6188C52.864 39.5648 51.981 39.5118 51.171 39.4018C49.605 39.1898 48.281 38.8498 47.125 38.3628L47.121 38.3608C45.576 37.6768 44.836 36.8718 44.982 36.0288L44.984 36.0238C45.141 35.4668 45.553 35.0338 46.318 34.6198L46.324 34.6178C46.9858 34.2836 47.6851 34.0291 48.407 33.8598C48.72 33.7778 49.045 33.7058 49.388 33.6448C50.9712 33.373 52.586 33.3362 54.18 33.5358H54.187C55.52 33.7168 56.595 34.0898 57.136 34.5578C57.611 34.9678 57.615 35.4138 57.148 35.8108L57.14 35.8168C56.879 36.0108 56.459 36.1838 55.957 36.2978C55.1565 36.5164 54.319 36.5638 53.499 36.4368L53.483 36.4338C52.979 36.3388 52.665 36.1468 52.665 35.9308C52.665 35.8108 52.865 35.7368 53.012 35.6818C53.063 35.6618 53.113 35.6458 53.142 35.6288C53.269 35.5458 53.203 35.4668 53.121 35.4138C52.96 35.3088 52.627 35.2278 52.344 35.2278C51.811 35.2278 51.394 35.2598 51.071 35.3278C50.9955 35.3502 50.9217 35.3776 50.85 35.4098C50.229 35.7568 50.013 36.0308 50.124 36.3248C50.266 36.6128 50.546 36.8528 50.979 37.0618C51.931 37.4648 53.075 37.6828 54.377 37.7078H54.388C55.701 37.7488 56.969 37.6228 58.097 37.3458C58.2224 37.3138 58.3471 37.2788 58.471 37.2408C59.449 36.9268 60.077 36.5838 60.508 36.1308C60.906 35.6628 60.994 35.2108 60.782 34.7098C60.414 34.1118 59.844 33.6728 58.934 33.2858C57.322 32.6138 55.238 32.2178 52.739 32.1088C50.937 32.0578 49.317 32.1648 47.786 32.4308C46.549 32.6768 45.409 33.0008 44.44 33.4028C43.431 33.8218 42.656 34.2978 42.151 34.7778C41.998 34.966 41.8437 35.153 41.688 35.3388C41.5738 35.5221 41.5097 35.7321 41.502 35.9478C41.502 36.7798 42.602 37.7298 44.44 38.4948C46.733 39.4458 49.948 39.9898 53.262 39.9898C56.297 39.9898 59.241 39.5288 61.475 38.7208C61.328 38.7638 61.182 38.8068 61.03 38.8458C60.435 39.0088 59.793 39.1488 59.1 39.2668ZM62.089 33.4038C60.213 32.6248 57.712 32.1248 55.047 31.9658C56.839 32.1708 58.385 32.5378 59.655 33.0668C60.631 33.4808 61.262 33.9678 61.651 34.6008L61.654 34.6088C61.884 35.1488 61.79 35.6358 61.359 36.1438L61.354 36.1478C60.891 36.6348 60.185 37.0218 59.128 37.3618C58.9083 37.4284 58.6869 37.4891 58.464 37.5438C57.152 37.8948 55.658 38.0558 54.104 38.0078C52.621 37.9798 51.325 37.7348 50.254 37.2798L50.243 37.2738C49.738 37.0328 49.415 36.7558 49.255 36.4288L49.254 36.4248C49.079 35.9688 49.607 35.6038 50.087 35.3368L50.1 35.3288C51.004 34.8968 51.779 34.9308 52.584 34.9308C53.096 34.9308 53.644 35.0568 53.917 35.2358C54.148 35.3878 54.151 35.5538 53.925 35.6948L53.918 35.6988C53.852 35.7358 53.773 35.7638 53.703 35.7898C53.604 35.8268 53.544 35.8518 53.544 35.8708C53.544 35.9978 53.714 36.1048 54.001 36.1598C54.55 36.2488 55.122 36.2098 55.605 36.1018C55.905 36.0148 56.156 35.9008 56.324 35.7748C56.716 35.4398 56.711 35.0628 56.308 34.7138C55.839 34.3048 54.899 33.9798 53.733 33.8218C52.2988 33.6427 50.8461 33.6767 49.422 33.9228C49.191 33.9628 48.971 34.0088 48.756 34.0598C48.1759 34.212 47.6137 34.4255 47.079 34.6968C46.38 35.0748 46.001 35.4718 45.857 35.9858C45.722 36.7758 46.39 37.5028 47.844 38.1458C48.927 38.6018 50.163 38.9188 51.624 39.1168C52.375 39.2198 53.223 39.2718 54.044 39.3218C55.804 39.3748 57.446 39.2648 59.066 38.9888C59.6002 38.8983 60.1306 38.7866 60.656 38.6538C61.48 38.4391 62.2801 38.1413 63.044 37.7648C64.015 37.2558 64.643 36.7298 64.992 36.1378C65.005 36.0748 65.024 36.0108 65.024 35.9488C65.029 35.1188 63.931 34.1668 62.089 33.4038Z" fill="#FA6119"/>
<path d="M64.997 36.1381C64.648 36.7301 64.02 37.2561 63.049 37.7651C62.346 38.1191 61.556 38.4111 60.661 38.6541C60.162 38.7811 59.636 38.8921 59.071 38.9891C57.451 39.2651 55.809 39.3751 54.049 39.3221C53.227 39.2721 52.38 39.2191 51.629 39.1171C50.168 38.9201 48.931 38.6021 47.849 38.1461C46.395 37.5021 45.726 36.7761 45.862 35.9861C46.007 35.4721 46.385 35.0751 47.084 34.6971C47.6188 34.426 48.181 34.2125 48.761 34.0601C48.976 34.0091 49.196 33.9631 49.427 33.9231C50.8512 33.678 52.3038 33.644 53.738 33.8221C54.904 33.9791 55.843 34.3041 56.313 34.7141C56.715 35.0631 56.721 35.4401 56.329 35.7751C56.161 35.9011 55.91 36.0151 55.61 36.1021C55.0834 36.22 54.5397 36.2396 54.006 36.1601C53.719 36.1051 53.549 35.9981 53.549 35.8711C53.549 35.8511 53.609 35.8271 53.708 35.7901C53.778 35.7651 53.856 35.7361 53.923 35.6991L53.93 35.6951C54.156 35.5541 54.153 35.3881 53.922 35.2361C53.649 35.0571 53.101 34.9311 52.589 34.9311C51.783 34.9311 51.008 34.8981 50.105 35.3291L50.092 35.3371C49.612 35.6041 49.084 35.9691 49.259 36.4251L49.26 36.4291C49.421 36.7561 49.743 37.0331 50.248 37.2741L50.259 37.2801C51.33 37.7341 52.625 37.9791 54.109 38.0081C55.664 38.0561 57.158 37.8951 58.469 37.5441C58.695 37.4881 58.917 37.4291 59.133 37.3621C60.189 37.0221 60.896 36.6351 61.359 36.1481L61.364 36.1441C61.795 35.6361 61.889 35.1491 61.659 34.6091L61.656 34.6011C61.267 33.9681 60.636 33.4811 59.66 33.0671C58.39 32.5391 56.844 32.1711 55.052 31.9661C52.6231 31.8094 50.1841 31.9657 47.795 32.4311C49.326 32.1641 50.946 32.0581 52.748 32.1091C55.247 32.2171 57.331 32.6141 58.943 33.2861C59.854 33.6731 60.423 34.1121 60.791 34.7101C61.003 35.2111 60.915 35.6631 60.517 36.1311C60.086 36.5841 59.457 36.9271 58.48 37.2411C58.3562 37.2791 58.2315 37.3141 58.106 37.3461C56.978 37.6231 55.71 37.7491 54.397 37.7081H54.386C53.084 37.6841 51.94 37.4661 50.988 37.0621C50.554 36.8531 50.274 36.6131 50.133 36.3251C50.021 36.0311 50.237 35.7571 50.859 35.4101C50.926 35.3791 50.999 35.3531 51.08 35.3281C51.403 35.2611 51.82 35.2281 52.353 35.2281C52.636 35.2281 52.969 35.3081 53.13 35.4141C53.211 35.4671 53.278 35.5461 53.151 35.6291C53.121 35.6461 53.071 35.6621 53.021 35.6821C52.875 35.7371 52.674 35.8111 52.674 35.9311C52.674 36.1471 52.987 36.3391 53.492 36.4341L53.508 36.4371C54.3279 36.5651 55.1657 36.5177 55.966 36.2981C56.467 36.1841 56.888 36.0111 57.149 35.8171L57.157 35.8111C57.625 35.4151 57.62 34.9681 57.145 34.5581C56.604 34.0891 55.53 33.7161 54.196 33.5361H54.189C52.5949 33.3376 50.9804 33.3743 49.397 33.6451C49.053 33.7061 48.729 33.7781 48.416 33.8601C47.694 34.0291 46.9947 34.2836 46.333 34.6181L46.327 34.6201C45.562 35.0341 45.149 35.4681 44.993 36.0241L44.991 36.0291C44.845 36.8721 45.585 37.6771 47.13 38.3611L47.134 38.3631C48.29 38.8501 49.614 39.1901 51.18 39.4021C51.99 39.5111 52.873 39.5651 53.726 39.6191L53.755 39.6201C54.058 39.6291 54.358 39.6341 54.656 39.6341C56.196 39.6341 57.66 39.5131 59.109 39.2671C59.7603 39.158 60.406 39.0178 61.044 38.8471C61.196 38.8081 61.342 38.7651 61.489 38.7221C61.696 38.6481 61.905 38.5751 62.098 38.4951C63.792 37.7891 64.848 36.9231 64.997 36.1381Z" fill="#F9B593"/>
<path d="M76.538 94.3391L142.794 2.69605C143.257 2.05405 144.021 1.90005 144.513 2.34805C145.003 2.79705 145.041 3.68505 144.598 4.34505L81.373 98.7581C80.149 100.584 78.03 101.067 76.676 99.8281C75.319 98.5891 75.257 96.1121 76.538 94.3391Z" fill="#231F20"/>
<path d="M89.807 105.708L137.695 0.912395C138.029 0.178395 138.766 -0.185605 139.352 0.0963949C139.936 0.374395 140.156 1.19539 139.847 1.94139L95.568 108.463C94.713 110.522 92.679 111.581 91.064 110.809C89.447 110.037 88.88 107.735 89.807 105.708Z" fill="#231F20"/>
<path d="M91.723 26.6156C90.3586 26.866 88.9741 26.9901 87.587 26.9866C87.31 26.9866 87.031 26.9816 86.747 26.9726L86.722 26.9706C85.931 26.9166 85.111 26.8636 84.358 26.7516C82.904 26.5387 81.673 26.1966 80.599 25.7056L80.596 25.7046C79.16 25.0166 78.473 24.2036 78.608 23.3556L78.609 23.3506C78.755 22.7886 79.137 22.3526 79.85 21.9366L79.855 21.9346C80.4656 21.5988 81.1165 21.3421 81.792 21.1706C82.082 21.0866 82.384 21.0166 82.702 20.9546C84.171 20.6812 85.6742 20.6437 87.155 20.8436H87.161C88.401 21.0266 89.399 21.4006 89.901 21.8726C90.342 22.2876 90.345 22.7356 89.911 23.1366L89.905 23.1426C89.661 23.3376 89.272 23.5106 88.806 23.6266C88.0646 23.845 87.2833 23.8925 86.521 23.7656L86.507 23.7636C86.037 23.6676 85.748 23.4736 85.748 23.2566C85.748 23.1356 85.932 23.0616 86.068 23.0056C86.117 22.9856 86.161 22.9676 86.189 22.9516C86.307 22.8696 86.246 22.7886 86.169 22.7356C86.021 22.6306 85.712 22.5496 85.449 22.5496C84.952 22.5496 84.565 22.5816 84.264 22.6486C84.1935 22.6708 84.125 22.6986 84.059 22.7316C83.483 23.0816 83.282 23.3576 83.384 23.6546C83.516 23.9426 83.776 24.1856 84.18 24.3956C85.065 24.8016 86.127 25.0206 87.337 25.0446H87.347C88.567 25.0856 89.744 24.9596 90.793 24.6806C90.91 24.6476 91.027 24.6136 91.141 24.5746C92.048 24.2586 92.633 23.9136 93.033 23.4566C93.403 22.9846 93.483 22.5296 93.288 22.0266C92.946 21.4226 92.418 20.9806 91.571 20.5906C90.075 19.9156 88.136 19.5176 85.816 19.4066C84.142 19.3536 82.637 19.4616 81.213 19.7306C80.065 19.9776 79.006 20.3036 78.106 20.7096C77.168 21.1316 76.447 21.6096 75.98 22.0946C75.848 22.2736 75.686 22.4836 75.549 22.6576C75.4422 22.8452 75.3832 23.056 75.377 23.2716C75.377 24.1096 76.398 25.0676 78.106 25.8356C80.237 26.7936 83.224 27.3416 86.303 27.3416C89.121 27.3416 91.856 26.8776 93.932 26.0656C93.795 26.1076 93.66 26.1506 93.518 26.1906C92.9278 26.3647 92.3285 26.5066 91.723 26.6156ZM94.501 20.7116C92.757 19.9266 90.434 19.4246 87.959 19.2646C89.624 19.4696 91.061 19.8396 92.241 20.3726C93.145 20.7896 93.733 21.2796 94.094 21.9176L94.097 21.9256C94.31 22.4696 94.224 22.9606 93.824 23.4716L93.821 23.4746C93.389 23.9666 92.732 24.3556 91.752 24.6976C91.552 24.7646 91.345 24.8256 91.135 24.8816C89.918 25.2346 88.529 25.3976 87.085 25.3486C85.706 25.3217 84.504 25.0736 83.509 24.6166L83.498 24.6106C83.029 24.3676 82.728 24.0896 82.579 23.7586L82.578 23.7546C82.416 23.2956 82.907 22.9286 83.352 22.6586L83.365 22.6516C84.204 22.2156 84.926 22.2516 85.673 22.2516C86.15 22.2516 86.658 22.3766 86.911 22.5576C87.126 22.7096 87.129 22.8776 86.919 23.0186L86.913 23.0246C86.852 23.0606 86.777 23.0896 86.715 23.1166C86.621 23.1536 86.567 23.1766 86.567 23.1966C86.567 23.3256 86.723 23.4327 86.991 23.4876C87.501 23.5777 88.032 23.5386 88.481 23.4296C88.7214 23.3607 88.9477 23.2492 89.149 23.1006C89.514 22.7616 89.508 22.3837 89.135 22.0326C88.697 21.6207 87.824 21.2946 86.74 21.1356C85.4081 20.9548 84.0559 20.9893 82.735 21.2376C82.5277 21.2756 82.3218 21.3213 82.118 21.3746C81.5761 21.5297 81.0532 21.7447 80.559 22.0156C79.91 22.3966 79.56 22.7986 79.425 23.3146C79.298 24.1106 79.92 24.8416 81.271 25.4906C82.277 25.9506 83.425 26.2696 84.783 26.4696C85.48 26.5716 86.267 26.6246 87.032 26.6756C88.664 26.7276 90.192 26.6166 91.698 26.3396C92.223 26.2426 92.712 26.1296 93.175 26.0016C93.9445 25.7836 94.6884 25.4835 95.394 25.1066C96.295 24.5936 96.88 24.0646 97.206 23.4686C97.215 23.4046 97.232 23.3396 97.232 23.2776C97.231 22.4386 96.21 21.4806 94.501 20.7116Z" fill="#FA6119"/>
<path d="M106.364 23.2746C106.364 18.0056 97.385 13.7356 86.306 13.7356C79.068 13.7356 72.744 15.5646 69.216 18.2976V14.0116H69.195C69.195 8.74363 60.213 4.47363 49.134 4.47363C38.056 4.47363 29.074 8.74463 29.074 14.0116V34.3366C29.074 36.5136 30.625 38.5136 33.207 40.1186V56.2726C33.207 61.5416 42.189 65.8106 53.267 65.8106C64.345 65.8106 73.327 61.5406 73.327 56.2726H73.349V35.9486L74.506 51.3026C77.819 52.4526 81.89 53.1376 86.306 53.1376C97.384 53.1376 106.364 48.8676 106.364 43.5996H106.386V23.2746H106.364ZM31.771 14.0106C31.771 12.6046 33.394 10.9926 36.11 9.70163C39.494 8.08963 44.243 7.16863 49.134 7.16863C54.028 7.16863 58.778 8.08963 62.159 9.70163C64.878 10.9926 66.497 12.6036 66.497 14.0106C66.497 15.4196 64.878 17.0306 62.159 18.3226C58.778 19.9326 54.027 20.8556 49.134 20.8556C44.242 20.8556 39.493 19.9326 36.11 18.3226C33.394 17.0306 31.771 15.4196 31.771 14.0106ZM62.16 20.7166C60.216 21.8336 58.043 22.5286 55.847 23.0016C53.645 23.4806 51.389 23.6826 49.135 23.6966C46.882 23.6826 44.625 23.4816 42.424 23.0026C40.227 22.5296 38.054 21.8336 36.111 20.7166C38.206 21.4926 40.365 21.9986 42.547 22.3246C46.9167 22.9588 51.3551 22.9591 55.725 22.3256C57.906 22.0006 60.065 21.4956 62.16 20.7166ZM59.979 45.6706C57.776 46.1506 55.52 46.3526 53.267 46.3656C51.015 46.3516 48.758 46.1526 46.556 45.6726C44.359 45.1986 42.186 44.5046 40.242 43.3856C42.338 44.1626 44.497 44.6686 46.679 44.9936C48.863 45.3046 51.063 45.4746 53.267 45.4706C55.4723 45.4715 57.6747 45.3124 59.857 44.9946C62.038 44.6696 64.198 44.1646 66.292 43.3856C64.348 44.5046 62.176 45.1986 59.979 45.6706ZM66.292 40.2596C66.268 40.2716 66.241 40.2806 66.217 40.2916C65.8446 40.4667 65.4664 40.6291 65.083 40.7786C64.776 40.8986 64.453 41.0096 64.13 41.1206C64.029 41.1546 63.933 41.1916 63.83 41.2246C63.448 41.3506 63.053 41.4666 62.651 41.5786L62.543 41.6076C62.11 41.7266 61.668 41.8356 61.215 41.9366H61.214C58.756 42.4866 56.039 42.7916 53.266 42.7916C48.372 42.7916 43.625 41.8686 40.241 40.2586C37.526 38.9666 35.903 37.3556 35.903 35.9466C35.903 34.5406 37.526 32.9286 40.241 31.6366C43.626 30.0266 48.373 29.1036 53.266 29.1036C58.159 29.1036 62.909 30.0266 66.291 31.6366C69.01 32.9286 70.629 34.5396 70.629 35.9466C70.631 37.3566 69.011 38.9676 66.292 40.2596ZM93.855 33.0026C91.653 33.4816 89.397 33.6836 87.143 33.6976C84.89 33.6836 82.633 33.4836 80.432 33.0036C78.234 32.5306 76.062 31.8346 74.119 30.7186C76.213 31.4936 78.373 31.9986 80.555 32.3256C84.9247 32.9604 89.3632 32.9608 93.733 32.3266C95.915 32.0016 98.074 31.4946 100.169 30.7186C98.224 31.8346 96.052 32.5306 93.855 33.0026ZM99.33 27.5856C95.948 29.1956 91.198 30.1186 86.307 30.1186C81.411 30.1186 76.666 29.1956 73.282 27.5856C72.9881 27.4446 72.6983 27.2952 72.413 27.1376C72.323 27.0886 72.239 27.0376 72.153 26.9886C71.9734 26.8852 71.7964 26.7775 71.622 26.6656C71.532 26.6076 71.442 26.5506 71.356 26.4916C71.1924 26.3804 71.0323 26.264 70.876 26.1426C70.813 26.0936 70.744 26.0456 70.684 25.9976C70.5066 25.8533 70.3355 25.7015 70.171 25.5426C70.091 25.4656 70.022 25.3896 69.95 25.3126C69.7969 25.1521 69.6549 24.9814 69.525 24.8016C69.4688 24.7221 69.4158 24.6403 69.366 24.5566C69.098 24.1196 68.943 23.6886 68.943 23.2746C68.943 22.9396 69.041 22.5916 69.218 22.2406V22.2396C69.258 22.1606 69.312 22.0806 69.361 22.0006C69.413 21.9156 69.465 21.8306 69.527 21.7446C69.6593 21.5653 69.8022 21.394 69.955 21.2316C70.025 21.1576 70.092 21.0846 70.168 21.0096C70.328 20.8556 70.499 20.7016 70.687 20.5496C70.744 20.5036 70.809 20.4586 70.868 20.4126C71.023 20.2936 71.185 20.1756 71.357 20.0586C71.442 19.9996 71.531 19.9436 71.621 19.8856C71.791 19.7766 71.969 19.6686 72.153 19.5616C72.24 19.5116 72.324 19.4616 72.413 19.4136C72.69 19.2616 72.976 19.1106 73.282 18.9656C76.666 17.3556 81.412 16.4326 86.307 16.4326C91.199 16.4326 95.949 17.3556 99.33 18.9656C102.049 20.2576 103.669 21.8676 103.669 23.2756C103.668 24.6826 102.048 26.2936 99.33 27.5856Z" fill="#231F20"/>
</svg>
